<svg width="43" height="43" viewBox="0 0 43 43" fill="none" xmlns="http://www.w3.org/2000/svg">
<path d="M3.18227 33.8267C2.39922 32.1446 5.95225 28.7664 8.08 24.0036C8.99736 21.9507 9.0812 20.1767 8.68072 18.8132C7.63719 16.7237 6.76298 15.87 5.89934 13.835C5.21234 12.2171 12.5528 13.5992 12.7311 13.5293C13.4515 12.8903 15.3879 5.76156 17.1478 3.57775C17.952 2.58015 19.912 1.42971 21.8534 1.54353C23.496 1.64028 25.1915 2.60211 25.8907 3.47449C27.6587 5.68026 29.7279 13.3984 30.3115 13.5187C31.8825 13.8439 36.7981 11.9764 37.0846 13.8537C37.1473 14.2651 35.5218 18.549 35.258 18.8254C34.7949 19.9214 34.3098 21.5678 35.0008 23.2808C35.9882 25.7297 39.9295 30.2616 39.9287 34.6829C39.9287 34.839 39.1749 39.1708 33.6692 37.648C33.5462 37.6139 33.5194 37.5358 33.451 37.4838C32.1975 36.5333 29.6147 36.0414 27.2566 36.7374C24.4752 37.5586 24.9685 39.1586 21.5962 40.5774C20.7138 40.9489 19.0639 41.6213 16.8971 41.4311C16.3151 41.3798 14.635 41.214 12.9802 40.1253C10.6074 38.5643 11.0592 36.9309 9.08282 35.491C6.46587 33.5812 3.74961 35.0447 3.18227 33.8267V33.8267Z" fill="white"/>
<path d="M24.5714 13.8214C25.4195 13.8214 26.1071 12.7901 26.1071 11.5179C26.1071 10.2456 25.4195 9.21429 24.5714 9.21429C23.7232 9.21429 23.0356 10.2456 23.0356 11.5179C23.0356 12.7901 23.7232 13.8214 24.5714 13.8214Z" fill="#3F3F3F"/>
<path d="M21.5001 18.4286C22.3482 18.4286 23.0358 17.741 23.0358 16.8929C23.0358 16.0447 22.3482 15.3571 21.5001 15.3571C20.6519 15.3571 19.9644 16.0447 19.9644 16.8929C19.9644 17.741 20.6519 18.4286 21.5001 18.4286Z" fill="#3F3F3F"/>
<path d="M24.5715 38.3929C25.1501 38.3418 28.5192 37.0336 30.0792 37.1576C32.895 37.3813 36.2649 39.2812 38.2287 37.8441C40.83 35.9411 39.2546 35.3348 39.8186 34.1207C40.597 32.4429 37.0652 29.0761 34.9501 24.3282C34.0382 22.2816 33.9549 20.5131 34.353 19.1539C35.3903 17.0709 36.2593 16.2199 37.1178 14.1912C37.8007 12.5783 30.504 13.9561 30.3268 13.8864C29.6107 13.2494 29.4352 8.31988 27.6858 6.14286" fill="#D0CFCE"/>
<path d="M19.1963 13.8214C19.6204 13.8214 19.9642 12.7901 19.9642 11.5179C19.9642 10.2456 19.6204 9.21429 19.1963 9.21429C18.7722 9.21429 18.4285 10.2456 18.4285 11.5179C18.4285 12.7901 18.7722 13.8214 19.1963 13.8214Z" fill="#3F3F3F"/>
<path d="M24.5055 13.7683C25.2604 13.7683 25.8724 12.6258 25.8724 11.2164C25.8724 9.80704 25.2604 8.66451 24.5055 8.66451C23.7506 8.66451 23.1387 9.80704 23.1387 11.2164C23.1387 12.6258 23.7506 13.7683 24.5055 13.7683Z" stroke="black" stroke-width="0.777778" stroke-miterlimit="10" stroke-linecap="round" stroke-linejoin="round"/>
<path d="M3.76445 33.7689C2.99415 32.1122 6.48932 28.7852 8.58242 24.0945C9.48484 22.0727 9.56732 20.3255 9.17336 18.9827C8.14683 16.9248 7.28685 16.084 6.43728 14.0798C5.76146 12.4864 12.9824 13.8476 13.1578 13.7787C13.8664 13.1494 15.7714 6.1286 17.5025 3.97785C18.2936 2.99536 20.2218 1.86233 22.1315 1.97443C23.7474 2.06972 25.4153 3.01698 26.1031 3.87616C27.8415 6.04853 29.8778 13.6498 30.4519 13.7683C31.9973 14.0886 36.8329 12.2494 37.1147 14.0982C37.1764 14.5034 35.5773 18.7224 35.3179 18.9947C34.8623 20.0741 34.3851 21.6955 35.0649 23.3827C36.0362 25.7945 39.9133 30.2577 39.9125 34.6121C39.9125 34.7658 39.171 39.0321 33.7549 37.5323C33.634 37.4987 29.7665 35.9501 27.4468 36.6355C24.7107 37.4442 25.1959 39.0201 21.8785 40.4173C21.0105 40.7833 19.3874 41.4455 17.2559 41.2581C16.6834 41.2077 15.0307 41.0443 13.4028 39.9721C11.0687 38.4347 11.5131 36.8261 9.56892 35.408C6.99458 33.5271 4.32256 34.9684 3.76445 33.7689V33.7689Z" stroke="black" stroke-width="0.777778" stroke-miterlimit="10" stroke-linecap="round" stroke-linejoin="round"/>
<path d="M21.7999 18.6263C22.5844 18.6263 23.2204 17.8645 23.2204 16.9248C23.2204 15.9851 22.5844 15.2233 21.7999 15.2233C21.0154 15.2233 20.3794 15.9851 20.3794 16.9248C20.3794 17.8645 21.0154 18.6263 21.7999 18.6263Z" stroke="black" stroke-width="0.777778" stroke-miterlimit="10" stroke-linecap="round" stroke-linejoin="round"/>
<path d="M19.0629 13.7683C19.8178 13.7683 20.4297 12.6258 20.4297 11.2164C20.4297 9.80704 19.8178 8.66451 19.0629 8.66451C18.308 8.66451 17.696 9.80704 17.696 11.2164C17.696 12.6258 18.308 13.7683 19.0629 13.7683Z" stroke="black" stroke-width="0.777778" stroke-miterlimit="10" stroke-linecap="round" stroke-linejoin="round"/>
</svg>
